<svg width="89" height="61" viewBox="0 0 89 61" fill="none" xmlns="http://www.w3.org/2000/svg">
<path fill-rule="evenodd" clip-rule="evenodd" d="M65.1352 30.664C65.1352 41.9845 55.9586 51.1615 44.6387 51.1615C33.3188 51.1615 24.1422 41.9845 24.1422 30.664C24.1422 19.3435 33.3188 10.1665 44.6387 10.1665C55.9586 10.1665 65.1352 19.3435 65.1352 30.664ZM49.5629 23.0484C52.4141 24.0275 54.4997 25.4936 54.0905 28.2221C53.7933 30.2201 52.6817 31.1864 51.2046 31.5247C53.2311 32.5756 53.9217 34.5701 53.28 36.9817C52.0615 40.4522 49.1654 40.7444 45.3132 40.019L44.3779 43.7497L42.1199 43.1883L43.0424 39.5077C42.457 39.3628 41.8587 39.2078 41.2424 39.0424L40.316 42.7411L38.0606 42.1797L38.9947 38.4414L34.4465 37.2982L35.5684 34.7223C35.5684 34.7223 37.2333 35.1618 37.2101 35.1298C37.8496 35.2874 38.1339 34.8722 38.2459 34.5967L40.7805 24.4709C40.8088 23.9929 40.6428 23.3906 39.728 23.1624C39.7628 23.1381 38.0876 22.7562 38.0876 22.7562L38.6885 20.3532L43.2431 21.4772L44.1694 17.7811L46.4262 18.3424L45.5191 21.9655C46.1264 22.1026 46.7362 22.2423 47.3294 22.3897L48.23 18.7897L50.488 19.351L49.5629 23.0484ZM44.16 29.2139C45.6982 29.6218 49.0452 30.5091 49.6285 28.1824C50.2237 25.8019 46.972 25.083 45.3799 24.7309C45.1994 24.691 45.0403 24.6559 44.9105 24.6235L43.786 29.1167C43.8931 29.1432 44.0188 29.1765 44.1597 29.2139L44.16 29.2139L44.16 29.2139ZM42.4173 36.4479C44.2596 36.9332 48.2888 37.9946 48.9299 35.4307C49.5861 32.8093 45.6796 31.9362 43.7734 31.5101C43.5605 31.4625 43.3725 31.4205 43.2186 31.3823L41.9783 36.3343C42.1044 36.3655 42.252 36.4044 42.4173 36.4479Z" fill="#C9D3E9"/>
</svg>
