<svg width="89" height="61" viewBox="0 0 89 61" fill="none" xmlns="http://www.w3.org/2000/svg">
<path fill-rule="evenodd" clip-rule="evenodd" d="M56.3646 47.7985C65.9433 47.7985 73.7083 39.9433 73.7083 30.2534C73.7083 20.5635 65.9433 12.7083 56.3646 12.7083C52.0717 12.7083 48.1431 14.2861 45.1145 16.8997C42.0859 14.2862 38.1574 12.7085 33.8646 12.7085C24.2859 12.7085 16.5208 20.5637 16.5208 30.2536C16.5208 39.9435 24.2859 47.7987 33.8646 47.7987C38.1575 47.7987 42.0861 46.2209 45.1147 43.6073C48.1432 46.2208 52.0718 47.7985 56.3646 47.7985Z" fill="#C9D3E9"/>
<path fill-rule="evenodd" clip-rule="evenodd" d="M45.1146 43.6072C48.8437 40.3891 51.2083 35.6006 51.2083 30.2534C51.2083 24.9062 48.8437 20.1177 45.1146 16.8996C48.1432 14.2861 52.0717 12.7083 56.3646 12.7083C65.9433 12.7083 73.7083 20.5635 73.7083 30.2534C73.7083 39.9433 65.9433 47.7985 56.3646 47.7985C52.0717 47.7985 48.1432 46.2208 45.1146 43.6072Z" fill="#DBE4F8"/>
<path fill-rule="evenodd" clip-rule="evenodd" d="M45.1146 43.6074C48.8437 40.3893 51.2083 35.6008 51.2083 30.2536C51.2083 24.9065 48.8437 20.118 45.1146 16.8999C41.3856 20.118 39.021 24.9065 39.021 30.2536C39.021 35.6008 41.3856 40.3893 45.1146 43.6074Z" fill="#B3BFD9"/>
</svg>
