<svg width="89" height="61" viewBox="0 0 89 61" fill="none" xmlns="http://www.w3.org/2000/svg">
<path fill-rule="evenodd" clip-rule="evenodd" d="M27.0059 41.3228H21.6167L17.5755 25.9054C17.3837 25.1962 16.9764 24.5692 16.3773 24.2737C14.8822 23.5311 13.2348 22.9401 11.4375 22.642V22.0485H20.119C21.3172 22.0485 22.2158 22.9401 22.3656 23.9756L24.4624 35.0967L29.8489 22.0485H35.0883L27.0059 41.3228ZM38.0837 41.3228H32.9941L37.1851 22.0485H42.2747L38.0837 41.3228ZM48.8594 27.3883C49.0092 26.3502 49.9078 25.7566 50.9562 25.7566C52.6037 25.6076 54.3983 25.9056 55.896 26.6457L56.7947 22.4958C55.2969 21.9022 53.6495 21.6042 52.1544 21.6042C47.2145 21.6042 43.62 24.274 43.62 27.9793C43.62 30.7981 46.1661 32.2782 47.9634 33.1698C49.9078 34.0589 50.6566 34.6525 50.5069 35.5415C50.5069 36.8751 49.0092 37.4687 47.5141 37.4687C45.7168 37.4687 43.9196 37.0242 42.2747 36.2816L41.3761 40.434C43.1733 41.174 45.1177 41.4721 46.915 41.4721C52.4539 41.6186 55.896 38.9513 55.896 34.948C55.896 29.9065 48.8594 29.611 48.8594 27.3883ZM73.7083 41.3228L69.6671 22.0485H65.3264C64.4278 22.0485 63.5291 22.642 63.2296 23.5311L55.7463 41.3228H60.9856L62.0314 38.5066H68.469L69.0681 41.3228H73.7083ZM66.0752 27.2391L67.5703 34.5033H63.3793L66.0752 27.2391Z" fill="#C9D3E9"/>
</svg>
