<svg width="35" height="40" viewBox="0 0 35 40" fill="none" xmlns="http://www.w3.org/2000/svg">
<path d="M27.8115 13.0004C26.5601 12.9769 25.5358 14.0041 25.5358 15.2307V20H25.0893V10.3635C25.0893 9.13689 24.065 8.10974 22.8136 8.13321C21.6009 8.15596 20.625 9.12644 20.625 10.3203V20H20.1786V8.23071C20.1786 7.00407 19.1543 5.97693 17.9029 6.00039C16.6902 6.02314 15.7143 6.99363 15.7143 8.18751V20H15.2679V10.4182C15.2679 9.19157 14.2435 8.16443 12.9922 8.18789C11.7795 8.21064 10.8036 9.18113 10.8036 10.375V23.2808L9.03751 20.9009C8.31245 19.9238 6.91647 19.7078 5.91937 20.4184C4.92243 21.129 4.70201 22.497 5.42707 23.4741L12.4361 32.9189C12.6846 33.2538 13.0104 33.5263 13.3868 33.7142C13.7633 33.9021 14.1798 34 14.6023 34H25.6286C26.8715 34 27.9512 33.162 28.2359 31.9762L29.7152 25.8151C29.9044 25.027 30 24.22 30 23.4103V15.1875C30.0001 13.9936 29.0242 13.0231 27.8115 13.0004Z" fill="#CE008D"/>
</svg>
