<svg width="40" height="40" viewBox="0 0 40 40" fill="none" xmlns="http://www.w3.org/2000/svg">
<path d="M7.5 7.5C7.5 6.17392 8.02678 4.90215 8.96447 3.96447C9.90215 3.02678 11.1739 2.5 12.5 2.5C13.8261 2.5 15.0979 3.02678 16.0355 3.96447C16.9732 4.90215 17.5 6.17392 17.5 7.5C17.5 8.82608 16.9732 10.0979 16.0355 11.0355C15.0979 11.9732 13.8261 12.5 12.5 12.5C11.1739 12.5 9.90215 11.9732 8.96447 11.0355C8.02678 10.0979 7.5 8.82608 7.5 7.5ZM24.4475 11.46L24.5525 11.54C25.6132 12.3263 26.9419 12.661 28.2486 12.4713C29.5552 12.2815 30.7338 11.5826 31.527 10.5271C32.3203 9.47157 32.6638 8.14513 32.4827 6.83725C32.3015 5.52937 31.6104 4.34623 30.5602 3.54603C29.5099 2.74583 28.1858 2.39354 26.8767 2.56604C25.5677 2.73854 24.38 3.42183 23.5729 4.46679C22.7658 5.51174 22.4047 6.83353 22.5686 8.14369C22.7325 9.45385 23.4079 10.646 24.4475 11.46ZM15.67 15C15.984 14.4054 16.4147 13.8803 16.9364 13.456C17.458 13.0317 18.0599 12.717 18.706 12.5307C19.3521 12.3444 20.0291 12.2903 20.6965 12.3717C21.364 12.4531 22.0082 12.6683 22.5906 13.0044C23.173 13.3405 23.6816 13.7906 24.086 14.3278C24.4904 14.865 24.7823 15.4783 24.9442 16.1309C25.1061 16.7835 25.1347 17.4621 25.0283 18.126C24.922 18.79 24.6827 19.4256 24.325 19.995C23.6368 21.0903 22.5509 21.8763 21.2953 22.1878C20.0398 22.4993 18.7125 22.3121 17.5921 21.6655C16.4717 21.0189 15.6455 19.9632 15.2871 18.7203C14.9287 17.4773 15.0659 16.1439 15.67 15ZM6.25 15H12.925C12.4807 16.2689 12.3841 17.6336 12.6452 18.9524C12.9063 20.2712 13.5157 21.4962 14.41 22.5H13.75C12.4611 22.4998 11.2036 22.898 10.1497 23.64C9.0958 24.382 8.29695 25.4315 7.8625 26.645C7.02333 26.3079 6.23762 25.8506 5.53 25.2875C3.65 23.775 2.5 21.54 2.5 18.75C2.5 17.7554 2.89509 16.8016 3.59835 16.0983C4.30161 15.3951 5.25544 15 6.25 15ZM26.25 22.5C27.5386 22.5 28.7956 22.8982 29.8491 23.6402C30.9026 24.3822 31.701 25.4317 32.135 26.645C32.985 26.2975 33.7725 25.845 34.47 25.2875C36.35 23.775 37.5 21.54 37.5 18.75C37.5 17.7554 37.1049 16.8016 36.4016 16.0983C35.6984 15.3951 34.7446 15 33.75 15H27.075C27.35 15.7825 27.5 16.625 27.5 17.5C27.5023 19.3453 26.822 21.1262 25.59 22.5H26.25ZM29.7175 27.32C29.9 27.76 30 28.245 30 28.75C30 31.54 28.8525 33.775 26.97 35.2875C25.1175 36.775 22.6325 37.5 20 37.5C17.3675 37.5 14.8825 36.775 13.03 35.2875C11.15 33.775 10 31.54 10 28.75C9.99868 28.2572 10.0948 27.7689 10.2828 27.3134C10.4708 26.8578 10.7469 26.4439 11.0954 26.0954C11.4439 25.7469 11.8578 25.4708 12.3134 25.2828C12.7689 25.0948 13.2572 24.9987 13.75 25H26.25C26.9928 24.9998 27.7188 25.2202 28.3362 25.6333C28.9535 26.0463 29.4343 26.6334 29.7175 27.32Z" fill="#CE008D"/>
</svg>
