<svg width="40" height="40" viewBox="0 0 40 40" fill="none" xmlns="http://www.w3.org/2000/svg">
<path d="M28.3334 13.3333V11.6666C28.3334 7.07159 24.5951 3.33325 20.0001 3.33325C15.4051 3.33325 11.6667 7.07159 11.6667 11.6666V16.6666H10.0001C8.16175 16.6666 6.66675 18.1616 6.66675 19.9999V33.3333C6.66675 35.1716 8.16175 36.6666 10.0001 36.6666H30.0001C31.8384 36.6666 33.3334 35.1716 33.3334 33.3333V19.9999C33.3334 18.1616 31.8384 16.6666 30.0001 16.6666H15.0001V11.6666C15.0001 8.90992 17.2434 6.66659 20.0001 6.66659C22.7567 6.66659 25.0001 8.90992 25.0001 11.6666V13.3333H28.3334Z" fill="#CE008D"/>
</svg>
