<svg width="40" height="40" viewBox="0 0 40 40" fill="none" xmlns="http://www.w3.org/2000/svg">
<path d="M24.1375 15.8628C27.6383 19.3672 27.5902 24.9857 24.1585 28.4364C24.1521 28.4434 24.1445 28.451 24.1375 28.4581L20.2 32.3955C16.7271 35.8684 11.077 35.8679 7.60464 32.3955C4.13179 28.9233 4.13179 23.2725 7.60464 19.8003L9.77882 17.6261C10.3554 17.0495 11.3483 17.4327 11.3781 18.2475C11.416 19.2859 11.6023 20.3292 11.9459 21.3366C12.0622 21.6778 11.9791 22.0551 11.7242 22.31L10.9574 23.0768C9.31523 24.719 9.26372 27.3928 10.8897 29.051C12.5317 30.7256 15.2307 30.7355 16.8853 29.0809L20.8228 25.144C22.4746 23.4922 22.4677 20.8223 20.8228 19.1774C20.606 18.961 20.3875 18.7928 20.2169 18.6753C20.0962 18.5924 19.9965 18.4825 19.9258 18.3542C19.8552 18.226 19.8154 18.083 19.8098 17.9367C19.7866 17.3175 20.006 16.6795 20.4953 16.1902L21.7289 14.9566C22.0524 14.6331 22.5599 14.5933 22.935 14.8551C23.3646 15.1551 23.767 15.4923 24.1375 15.8628ZM32.3954 7.60446C28.923 4.13208 23.2729 4.13161 19.8001 7.60446L15.8626 11.542C15.8555 11.549 15.8479 11.5566 15.8415 11.5636C12.4099 15.0143 12.3617 20.6328 15.8626 24.1372C16.233 24.5077 16.6354 24.8449 17.065 25.1448C17.4401 25.4066 17.9476 25.3668 18.271 25.0434L19.5047 23.8097C19.9939 23.3204 20.2133 22.6824 20.1901 22.0633C20.1845 21.9169 20.1448 21.774 20.0741 21.6457C20.0034 21.5175 19.9038 21.4075 19.7831 21.3246C19.6124 21.2071 19.394 21.039 19.1771 20.8225C17.5322 19.1776 17.5253 16.5078 19.1771 14.8559L23.1146 10.919C24.7693 9.26442 27.4682 9.27438 29.1102 10.9489C30.7362 12.6071 30.6848 15.281 29.0426 16.9231L28.2758 17.6899C28.0209 17.9448 27.9377 18.3222 28.0541 18.6633C28.3977 19.6708 28.5839 20.714 28.6219 21.7524C28.6517 22.5672 29.6446 22.9504 30.2211 22.3739L32.3953 20.1997C35.8682 16.7275 35.8682 11.0767 32.3954 7.60446Z" fill="#CE008D"/>
</svg>
