<svg width="40" height="32" viewBox="0 0 40 32" fill="none" xmlns="http://www.w3.org/2000/svg">
<g clip-path="url(#clip0_19_20772)">
<path d="M17.8938 9.59285C17.9626 10.0134 18.0001 10.4464 18.0001 10.8298C18.0001 11.3246 17.9626 11.7576 17.8938 12.1781L19.2813 13.4027C19.7188 13.7924 19.9001 14.3552 19.6688 14.949C19.5251 15.2211 19.3688 15.5984 19.1938 15.9076L19.0001 16.2416C18.7563 16.5509 18.6063 16.8477 18.3876 17.1384C18.0313 17.6085 17.4063 17.7631 16.8438 17.5776L15.0751 17.0024C14.4063 17.5528 13.6438 17.9919 12.8126 18.3012L12.3813 20.0948C12.3126 20.67 11.8626 21.1277 11.2751 21.2019C10.8563 21.2514 10.4313 21.2761 10.0001 21.2761C9.56882 21.2761 9.14382 21.2514 8.72507 21.2019C8.13757 21.1277 7.63132 20.67 7.56257 20.0948L7.13132 18.3012C6.35632 17.9919 5.59382 17.5528 4.92195 17.0024L3.1582 17.5776C2.59632 17.7631 1.97007 17.6085 1.61382 17.1384C1.39257 16.8477 1.18632 16.5447 0.996324 16.2354L0.807574 15.9076C0.633199 15.5984 0.474574 15.2768 0.332824 14.949C0.101324 14.3552 0.278699 13.7924 0.720074 13.4027L2.10632 12.1781C2.03632 11.7576 1.94382 11.3246 1.94382 10.8298C1.94382 10.4464 2.03632 10.0134 2.10632 9.59285L0.720074 8.36825C0.278699 7.92293 0.101324 7.36011 0.332824 6.82202C0.474574 6.43856 0.633199 6.17199 0.806949 5.86089L0.996949 5.53618C1.18632 5.22384 1.39257 4.92202 1.61382 4.63195C1.97007 4.16499 2.59632 4.00975 3.1582 4.19282L4.92195 4.76802C5.59382 4.22127 6.35632 3.78091 7.13132 3.4729L7.56257 1.67495C7.63132 1.10099 8.13757 0.641455 8.72507 0.571009C9.14813 0.520231 9.57391 0.494806 10.0001 0.494873C10.4313 0.494873 10.8563 0.520726 11.2751 0.570947C11.8626 0.641455 12.3126 1.10099 12.3813 1.67495L12.8126 3.4729C13.6438 3.78091 14.4063 4.22127 15.0751 4.76802L16.8438 4.19282C17.4063 4.00975 18.0313 4.16499 18.3876 4.63195C18.6063 4.92078 18.7563 5.22137 19.0001 5.53185L19.1938 5.86522C19.3688 6.17508 19.5251 6.49422 19.6688 6.82202C19.9001 7.36011 19.7188 7.92293 19.2813 8.36825L17.8938 9.59285ZM10.0001 7.86108C8.34382 7.86108 7.00007 9.2465 7.00007 10.8298C7.00007 12.5245 8.34382 13.7986 10.0001 13.7986C11.6563 13.7986 13.0001 12.5245 13.0001 10.8298C13.0001 9.2465 11.6563 7.86108 10.0001 7.86108ZM30.3063 29.5824C29.8813 29.6505 29.4438 29.6876 29.0001 29.6876C28.5563 29.6876 28.1188 29.6505 27.6938 29.5824L26.4563 30.9555C26.0063 31.3884 25.4376 31.5678 24.8938 31.3389C24.5626 31.1967 24.2376 31.0421 23.9251 30.8689L23.5876 30.6772C23.2751 30.436 22.9751 30.2875 22.6813 30.071C22.2063 29.7185 22.0501 29.1 22.2376 28.5434L22.8188 26.793C22.2626 26.1313 21.8188 25.3767 21.5063 24.5541L19.6938 24.1274C19.1126 24.0593 18.6501 23.614 18.5751 23.0326C18.5251 22.6182 18.5001 22.1977 18.5001 21.7709C18.5001 21.3442 18.5251 20.9236 18.5751 20.5092C18.6501 19.9278 19.1126 19.4268 19.6938 19.3588L21.5063 18.932C21.8188 18.1651 22.2626 17.4106 22.8188 16.7488L22.2376 14.9985C22.0501 14.4418 22.2063 13.8233 22.6813 13.4708C22.9751 13.2543 23.2813 12.9945 23.5938 12.8585L23.9251 12.6729C24.2376 12.4998 24.5063 12.3451 24.8938 12.2029C25.4376 11.974 26.0063 12.1534 26.4563 12.5863L27.6938 13.9594C28.1188 13.8914 28.5563 13.8542 29.0001 13.8542C29.4438 13.8542 29.8813 13.8914 30.3063 13.9594L31.5438 12.5863C31.9376 12.1534 32.5063 11.974 33.1063 12.2029C33.4376 12.3451 33.7626 12.4998 34.0751 12.6729L34.4063 12.8585C34.7188 12.9945 35.0251 13.2543 35.3188 13.4708C35.7938 13.8233 35.9501 14.4418 35.7626 14.9985L35.1813 16.7488C35.7376 17.4106 36.1813 18.1651 36.4938 18.932L38.3063 19.3588C38.8876 19.4268 39.3501 19.9278 39.4251 20.5092C39.4751 20.9236 39.5001 21.3442 39.5001 21.7709C39.5001 22.1977 39.4751 22.6182 39.4251 23.0326C39.3501 23.614 38.8876 24.0593 38.3063 24.1274L36.4938 24.5541C36.1813 25.3767 35.7376 26.1313 35.1813 26.793L35.7626 28.5434C35.9501 29.1 35.7938 29.7185 35.3188 30.071C35.0251 30.2875 34.7251 30.436 34.4126 30.6772L34.0751 30.8689C33.7626 31.0421 33.3813 31.1967 33.1063 31.3389C32.5063 31.5678 31.9376 31.3884 31.5438 30.9555L30.3063 29.5824ZM32.0001 21.7709C32.0001 20.1319 30.6563 18.8022 29.0001 18.8022C27.3438 18.8022 26.0001 20.1319 26.0001 21.7709C26.0001 23.4099 27.3438 24.7397 29.0001 24.7397C30.6563 24.7397 32.0001 23.4099 32.0001 21.7709Z" fill="#CE008D"/>
</g>
<defs>
<clipPath id="clip0_19_20772">
<rect width="40" height="31.6667" fill="white"/>
</clipPath>
</defs>
</svg>
