<svg width="40" height="40" viewBox="0 0 40 40" fill="none" xmlns="http://www.w3.org/2000/svg">
<path d="M20 8.80005C6.878 8.80005 0 18.464 0 20C0 21.532 6.878 31.2 20 31.2C33.12 31.2 40 21.532 40 20C40 18.464 33.12 8.80005 20 8.80005ZM20 28.614C15.09 28.614 11.11 24.758 11.11 20C11.11 15.242 15.09 11.382 20 11.382C24.91 11.382 28.888 15.242 28.888 20C28.888 24.758 24.91 28.614 20 28.614ZM20 20C19.186 19.106 21.326 15.692 20 15.692C17.544 15.692 15.554 17.622 15.554 20C15.554 22.378 17.544 24.308 20 24.308C22.454 24.308 24.446 22.378 24.446 20C24.446 18.906 20.692 20.758 20 20Z" fill="#CE008D"/>
</svg>
