<svg width="220" height="59" viewBox="0 0 220 59" fill="none" xmlns="http://www.w3.org/2000/svg">
<g clip-path="url(#clip0_2_626)">
<path d="M65.7058 47.0091L57.262 22.6961H63.2125L69.2352 41.0826L75.2578 22.6961H80.959L72.4764 47.0091H65.7058Z" fill="#390984"/>
<path d="M88.1895 40.2328V47.0091H82.6655V22.7017H93.176C98.7332 22.7017 101.869 26.5699 101.869 31.2879C101.869 36.2542 98.4119 40.2328 92.6774 40.2328H88.1895ZM88.1895 27.7397V35.1947H92.5389C94.9268 35.1947 96.3175 33.6662 96.3175 31.4314C96.3175 29.1965 94.9268 27.7397 92.3616 27.7397H88.195H88.1895Z" fill="#390984"/>
<path d="M109.571 31.6079V47.0091H104.263V22.7017H110.285L120.12 38.1414V22.7017H125.428V47.0146H119.405L109.571 31.6135V31.6079Z" fill="#390984"/>
<path d="M174.711 43.1078C172.894 45.8061 170.151 47.4395 166.051 47.4395C160.206 47.4395 156.433 43.3561 156.433 37.9649C156.433 32.5736 160.35 28.4516 166.09 28.4516C171.83 28.4516 175.354 32.4633 175.354 37.7165C175.354 38.4284 175.282 39.3499 175.282 39.4547H161.314C161.846 41.7613 163.597 43.2512 166.162 43.2512C168.406 43.2512 169.974 42.2911 171.01 40.8398L174.717 43.1133L174.711 43.1078ZM161.491 35.7962H170.362C169.83 33.5614 168.046 32.4964 166.051 32.4964C163.735 32.4964 162.167 33.7048 161.491 35.7962Z" fill="#390984"/>
<path d="M177.06 47.0091V37.4296C177.06 32.5957 180.95 28.6612 185.798 28.573C186.419 28.5619 186.945 28.5564 187.322 28.5564V33.5227C183.654 33.5227 182.047 35.5479 182.047 38.7043V47.0091H177.06Z" fill="#390984"/>
<path d="M189.106 47.0091V37.5289C189.106 32.6398 193.04 28.6557 197.948 28.5675C198.525 28.5564 199.012 28.5509 199.367 28.5509V33.5172C195.699 33.5172 194.092 35.5424 194.092 38.6988V47.0036H189.106V47.0091Z" fill="#390984"/>
<path d="M213.872 46.1207C212.16 50.9821 209.955 53.0404 205.462 53.0404H203.677V48.6038H205.173C206.847 48.6038 207.883 47.6823 208.559 46.2641L201.755 28.5564H207.423L211.163 39.7693L214.869 28.5564H220L213.872 46.1262V46.1207Z" fill="#390984"/>
<path d="M150.299 34.2346C152.333 33.2082 153.363 31.4645 153.363 29.3014C153.363 25.7532 150.942 22.7017 145.49 22.7017H135.44V27.4197H145.097C146.986 27.4197 147.95 28.4516 147.95 29.8697C147.95 31.2879 146.986 32.3915 145.097 32.3915H135.44V47.0146H146.416C152.189 47.0146 155.003 44.0348 155.003 40.0562C155.003 37.2144 153.402 35.1947 150.299 34.2346ZM146.133 42.2911H140.964V37.0378H146.094C148.266 37.0378 149.479 38.1359 149.479 39.7362C149.479 41.3364 148.266 42.2911 146.127 42.2911H146.133Z" fill="#390984"/>
<path d="M21.9573 12.2282C23.614 9.62368 27.7639 4.28212 34.8115 2.46113C34.8115 2.46113 27.2209 5.51818 22.9713 13.4202C38.5957 15.6495 40.3133 0.353197 40.3133 0.353197C25.7083 -2.09686 22.5723 8.80148 21.9573 12.2282Z" fill="#8CC63F"/>
<path d="M21.1872 12.8353C20.2397 11.3454 17.8628 8.2883 13.8293 7.24537C13.8293 7.24537 18.1786 8.99463 20.6054 13.5195C11.6629 14.7942 10.6767 6.0369 10.6767 6.0369C19.0374 4.63529 20.8326 10.8708 21.1872 12.8353Z" fill="#8CC63F"/>
<path d="M43.9091 20.351C29.2709 14.6342 14.6382 14.6342 0 20.351V26.0071C0 40.3984 8.64885 53.3936 21.9573 59C35.2658 53.3936 43.9147 40.3984 43.9147 26.0071V20.351H43.9091ZM21.9518 47.0312C15.1036 47.0312 9.54643 41.502 9.54643 34.6761C9.54643 27.8501 15.0981 22.3209 21.9518 22.3209C28.8055 22.3209 34.3572 27.8501 34.3572 34.6761C34.3572 41.502 28.8055 47.0312 21.9518 47.0312Z" fill="url(#paint0_linear_2_626)"/>
<path d="M21.9573 22.3209C26.2956 22.3209 30.1186 24.5447 32.3349 27.9053L43.9147 20.351C29.2709 14.6342 14.6382 14.6342 0 20.351L11.5798 27.9053C13.7961 24.5447 17.6135 22.3209 21.9573 22.3209Z" fill="url(#paint1_linear_2_626)"/>
<path d="M34.3572 34.676C34.3572 41.4965 28.8055 47.0312 21.9518 47.0312V59.0055C35.2603 53.3991 43.9091 40.4039 43.9091 26.0125V20.3564L32.3293 27.9108C33.6092 29.8532 34.3572 32.1818 34.3572 34.6815V34.676Z" fill="url(#paint2_linear_2_626)"/>
</g>
<defs>
<linearGradient id="paint0_linear_2_626" x1="34.5954" y1="52.8528" x2="17.9057" y2="18.9231" gradientUnits="userSpaceOnUse">
<stop stop-color="#7A0080"/>
<stop offset="1" stop-color="#CE008D"/>
</linearGradient>
<linearGradient id="paint1_linear_2_626" x1="0" y1="21.9843" x2="43.9091" y2="21.9843" gradientUnits="userSpaceOnUse">
<stop stop-color="#7A0080"/>
<stop offset="1" stop-color="#CE008D"/>
</linearGradient>
<linearGradient id="paint2_linear_2_626" x1="43.1057" y1="22.1609" x2="25.9938" y2="54.1468" gradientUnits="userSpaceOnUse">
<stop stop-color="#7A0080"/>
<stop offset="1" stop-color="#CE008D"/>
</linearGradient>
<clipPath id="clip0_2_626">
<rect width="220" height="59" fill="white"/>
</clipPath>
</defs>
</svg>
