<svg width="220" height="59" viewBox="0 0 220 59" fill="none" xmlns="http://www.w3.org/2000/svg">
<g clip-path="url(#clip0_357_1434)">
<path d="M65.7058 47.0092L57.262 22.6963H63.2125L69.2352 41.0827L75.2578 22.6963H80.959L72.4764 47.0092H65.7058Z" fill="white"/>
<path d="M88.1895 40.2328V47.0091H82.6655V22.7017H93.176C98.7332 22.7017 101.869 26.5699 101.869 31.2879C101.869 36.2542 98.4119 40.2328 92.6774 40.2328H88.1895ZM88.1895 27.7397V35.1947H92.5389C94.9268 35.1947 96.3175 33.6662 96.3175 31.4314C96.3175 29.1965 94.9268 27.7397 92.3616 27.7397H88.195H88.1895Z" fill="white"/>
<path d="M109.571 31.6079V47.0091H104.263V22.7017H110.285L120.12 38.1414V22.7017H125.428V47.0146H119.405L109.571 31.6135V31.6079Z" fill="white"/>
<path d="M174.711 43.1079C172.894 45.8062 170.151 47.4396 166.051 47.4396C160.206 47.4396 156.433 43.3562 156.433 37.9649C156.433 32.5737 160.35 28.4517 166.09 28.4517C171.83 28.4517 175.354 32.4633 175.354 37.7166C175.354 38.4285 175.282 39.35 175.282 39.4548H161.314C161.846 41.7614 163.597 43.2513 166.162 43.2513C168.406 43.2513 169.974 42.2912 171.01 40.8399L174.717 43.1134L174.711 43.1079ZM161.491 35.7963H170.362C169.83 33.5615 168.046 32.4965 166.051 32.4965C163.735 32.4965 162.167 33.7049 161.491 35.7963Z" fill="white"/>
<path d="M177.06 47.0093V37.4298C177.06 32.5959 180.95 28.6615 185.798 28.5732C186.419 28.5622 186.945 28.5566 187.322 28.5566V33.523C183.654 33.523 182.047 35.5481 182.047 38.7045V47.0093H177.06Z" fill="white"/>
<path d="M189.106 47.0095V37.5293C189.106 32.6402 193.04 28.6561 197.948 28.5678C198.525 28.5568 199.012 28.5513 199.367 28.5513V33.5176C195.699 33.5176 194.092 35.5428 194.092 38.6991V47.0039H189.106V47.0095Z" fill="white"/>
<path d="M213.872 46.1209C212.16 50.9824 209.955 53.0406 205.462 53.0406H203.677V48.6041H205.173C206.847 48.6041 207.883 47.6825 208.559 46.2644L201.755 28.5566H207.423L211.163 39.7695L214.869 28.5566H220L213.872 46.1264V46.1209Z" fill="white"/>
<path d="M150.299 34.2346C152.333 33.2082 153.363 31.4645 153.363 29.3014C153.363 25.7532 150.942 22.7017 145.49 22.7017H135.44V27.4197H145.097C146.986 27.4197 147.95 28.4516 147.95 29.8697C147.95 31.2879 146.986 32.3915 145.097 32.3915H135.44V47.0146H146.416C152.189 47.0146 155.003 44.0348 155.003 40.0562C155.003 37.2144 153.402 35.1947 150.299 34.2346ZM146.133 42.2911H140.964V37.0378H146.094C148.266 37.0378 149.479 38.1359 149.479 39.7362C149.479 41.3364 148.266 42.2911 146.127 42.2911H146.133Z" fill="white"/>
<path d="M21.9573 12.228C23.614 9.62344 27.7639 4.28187 34.8115 2.46088C34.8115 2.46088 27.2209 5.51794 22.9713 13.4199C38.5957 15.6492 40.3133 0.352952 40.3133 0.352952C25.7083 -2.0971 22.5723 8.80123 21.9573 12.228Z" fill="#8CC63F"/>
<path d="M21.1872 12.8351C20.2397 11.3452 17.8628 8.28818 13.8293 7.24525C13.8293 7.24525 18.1786 8.9945 20.6054 13.5194C11.6629 14.7941 10.6767 6.03678 10.6767 6.03678C19.0374 4.63517 20.8326 10.8707 21.1872 12.8351Z" fill="#8CC63F"/>
<path d="M43.9091 20.3511C29.2709 14.6343 14.6382 14.6343 0 20.3511V26.0072C0 40.3985 8.64885 53.3937 21.9573 59.0002C35.2658 53.3937 43.9147 40.3985 43.9147 26.0072V20.3511H43.9091ZM21.9518 47.0313C15.1036 47.0313 9.54643 41.5021 9.54643 34.6762C9.54643 27.8502 15.0981 22.3211 21.9518 22.3211C28.8055 22.3211 34.3572 27.8502 34.3572 34.6762C34.3572 41.5021 28.8055 47.0313 21.9518 47.0313Z" fill="url(#paint0_linear_357_1434)"/>
<path d="M21.9573 22.3211C26.2956 22.3211 30.1186 24.5449 32.3349 27.9054L43.9147 20.3511C29.2709 14.6343 14.6382 14.6343 0 20.3511L11.5798 27.9054C13.7961 24.5449 17.6135 22.3211 21.9573 22.3211Z" fill="url(#paint1_linear_357_1434)"/>
<path d="M34.3572 34.676C34.3572 41.4965 28.8055 47.0312 21.9518 47.0312V59.0055C35.2603 53.3991 43.9091 40.4039 43.9091 26.0125V20.3564L32.3293 27.9108C33.6092 29.8532 34.3572 32.1818 34.3572 34.6815V34.676Z" fill="url(#paint2_linear_357_1434)"/>
</g>
<defs>
<linearGradient id="paint0_linear_357_1434" x1="34.5954" y1="52.8529" x2="17.9057" y2="18.9233" gradientUnits="userSpaceOnUse">
<stop stop-color="#7A0080"/>
<stop offset="1" stop-color="#CE008D"/>
</linearGradient>
<linearGradient id="paint1_linear_357_1434" x1="0" y1="21.9844" x2="43.9091" y2="21.9844" gradientUnits="userSpaceOnUse">
<stop stop-color="#7A0080"/>
<stop offset="1" stop-color="#CE008D"/>
</linearGradient>
<linearGradient id="paint2_linear_357_1434" x1="43.1057" y1="22.1609" x2="25.9938" y2="54.1468" gradientUnits="userSpaceOnUse">
<stop stop-color="#7A0080"/>
<stop offset="1" stop-color="#CE008D"/>
</linearGradient>
<clipPath id="clip0_357_1434">
<rect width="220" height="59" fill="white"/>
</clipPath>
</defs>
</svg>
