<svg width="112" height="135" viewBox="0 0 112 135" fill="none" xmlns="http://www.w3.org/2000/svg">
<path fill-rule="evenodd" clip-rule="evenodd" d="M52.5587 1.46338C36.3472 10.0534 21.9267 14.6639 6.39643 16.2223C2.48352 16.6148 1.60744 16.8862 0.902408 17.9238C0.466085 18.5658 0.43177 20.3559 0.357862 46.3246C0.274979 75.3613 0.414613 80.7923 1.36222 85.3983C3.31789 94.9021 8.37532 103.711 16.5131 111.787C23.4753 118.696 32.3409 124.771 42.934 129.892C49.0734 132.86 54.5471 135 55.9999 135C58.1665 135 69.3963 130.093 76.1927 126.177C95.633 114.976 107.422 101.025 110.632 85.4237C111.586 80.7902 111.725 75.3964 111.642 46.3246C111.568 20.3559 111.534 18.5658 111.097 17.9238C110.392 16.8862 109.516 16.6148 105.603 16.2223C90.0732 14.6639 75.6527 10.0534 59.4412 1.46338C57.9221 0.658575 56.3737 0 55.9999 0C55.6262 0 54.0778 0.658575 52.5587 1.46338ZM60.0359 8.52505C73.8105 15.5978 88.0793 20.1432 101.926 21.8689L105.492 22.3134L105.492 51.4763C105.492 78.6006 105.458 80.8144 105.011 83.1455C102.382 96.8377 92.9216 108.789 76.7642 118.826C71.1625 122.306 62.3951 126.649 57.3857 128.425C56.034 128.904 55.9659 128.904 54.6142 128.423C49.8745 126.74 41.7821 122.789 36.3823 119.522C21.6458 110.605 12.3471 100.34 8.48117 88.7195C6.41939 82.5225 6.50808 84.1973 6.50808 51.4755L6.50782 22.3118L9.93927 21.879C24.0877 20.0951 38.3385 15.5648 51.9086 8.53746C53.9411 7.48479 55.7571 6.61822 55.9445 6.61136C56.1317 6.60449 57.9728 7.46552 60.0359 8.52505ZM51.7766 15.3349C40.5874 20.7838 29.2977 24.5777 17.7303 26.7764C14.5752 27.3764 14.081 27.5435 13.375 28.2493L12.5789 29.0457V54.9745C12.5789 80.6724 12.5839 80.9245 13.1519 83.3033C14.9046 90.6421 18.6594 97.0204 24.8598 103.191C27.871 106.187 32.9498 110.227 36.995 112.843C43.4986 117.05 53.9712 122.213 55.9999 122.213C57.3836 122.213 66.3094 118.2 67.4391 117.071C68.6224 115.888 68.3946 113.498 67.0123 112.592C65.7429 111.76 64.748 111.987 60.2196 114.139L55.9276 116.179L50.0907 113.268C40.7284 108.599 34.8764 104.555 29.063 98.7367C24.2835 93.9529 21.7672 90.2227 20 85.3012C18.5372 81.2278 18.5179 80.8456 18.5179 55.8113V32.7683L20.0357 32.4737C30.0391 30.5328 42.7656 26.2847 52.5714 21.6131L55.9999 19.9798L59.4285 21.6131C69.2377 26.2863 81.9557 30.5312 91.9721 32.4753L93.4978 32.7714L93.4197 56.8373L93.3416 80.9031L92.7352 83.0148C91.3001 88.0134 88.4607 92.938 84.5523 97.2081C82.023 99.9712 81.6092 100.92 82.3086 102.351C82.9202 103.603 84.3131 104.342 85.5822 104.088C86.235 103.957 86.9944 103.365 88.3931 101.894C93.354 96.6786 96.9155 90.588 98.4605 84.6785C99.5081 80.6716 99.5805 78.4824 99.4992 53.2585L99.421 29.0454L98.6249 28.2493C97.9191 27.5435 97.4245 27.3761 94.2696 26.7764C82.9136 24.618 72.3902 21.1248 61.2493 15.8156C58.4368 14.4755 56.5434 13.7263 55.9701 13.7271C55.4153 13.7279 53.8241 14.3379 51.7766 15.3349ZM52.0406 38.4193C49.5707 38.9483 45.8756 40.8631 43.9379 42.6184C38.6616 47.3974 36.6943 55.0748 39.0235 61.7973C40.215 65.2362 42.7281 68.6755 45.4065 70.5325L46.0313 70.9656L44.8105 78.574C43.5227 86.5999 42.5389 93.8004 42.5384 95.2041C42.5381 95.7943 42.8015 96.3225 43.4271 96.9858L44.3161 97.9284H55.9999H67.6838L68.5728 96.9858C69.1984 96.3225 69.4618 95.7943 69.4615 95.2041C69.461 93.8004 68.4772 86.5999 67.1894 78.574L65.9686 70.9656L66.5934 70.5325C72.0882 66.723 75.0625 58.8779 73.5648 52.1457C71.7202 43.8548 64.3392 37.9698 55.868 38.0356C54.7066 38.0445 52.9842 38.2172 52.0406 38.4193ZM61.0151 45.1688C63.6497 46.4281 65.5499 48.3217 66.7808 50.9135C67.5851 52.6074 67.7363 53.2292 67.8324 55.239C68.0792 60.3976 66.3883 63.3961 61.2846 66.8503C59.4979 68.0597 59.4942 68.1252 60.7552 76.1519C62.2721 85.8106 63.1176 91.3949 63.1226 91.7914C63.1258 92.0474 61.5278 92.1213 55.9999 92.1213C50.4721 92.1213 48.8741 92.0474 48.8773 91.7914C48.8823 91.3949 49.7278 85.8106 51.2447 76.1519C52.5057 68.1252 52.502 68.0597 50.7152 66.8503C45.6116 63.3961 43.9207 60.3976 44.1675 55.239C44.2636 53.2292 44.4148 52.6074 45.2191 50.9135C46.6946 47.8062 49.2769 45.571 52.7005 44.4373C53.3649 44.2175 54.7353 44.1127 56.3959 44.1552C58.8087 44.2167 59.2055 44.3038 61.0151 45.1688ZM75.0598 105.793C74.7272 105.844 74.0441 106.297 73.5421 106.8C72.7549 107.587 72.6304 107.884 72.6377 108.957C72.6502 110.793 73.7841 111.918 75.6226 111.918C76.4649 111.918 76.836 111.733 77.6757 110.894C78.4934 110.076 78.7003 109.673 78.7003 108.901C78.7003 106.795 77.1461 105.468 75.0598 105.793Z" fill="url(#paint0_linear_5_187)"/>
<defs>
<linearGradient id="paint0_linear_5_187" x1="111.662" y1="9.97044e-05" x2="-1.79234" y2="2.37038" gradientUnits="userSpaceOnUse">
<stop stop-color="#7A0080"/>
<stop offset="1" stop-color="#CE008D"/>
</linearGradient>
</defs>
</svg>
