<svg width="136" height="135" viewBox="0 0 136 135" fill="none" xmlns="http://www.w3.org/2000/svg">
<path fill-rule="evenodd" clip-rule="evenodd" d="M63.12 0.0707078C54.5774 0.903328 47.6753 2.62504 40.952 5.60057C36.007 7.78887 30.0807 11.2268 28.6762 12.7218C27.2788 14.2092 28.197 16.6413 30.2781 16.9662C31.0717 17.0899 31.5578 16.869 34.0905 15.2336C37.4917 13.0371 42.7677 10.3902 46.494 9.01022C49.1563 8.02427 55.7204 6.25163 56.7087 6.25163C57.2328 6.25163 57.2336 6.26535 56.7594 6.97736C52.4852 13.3924 49.483 21.3282 47.0387 32.6727L46.6057 34.6826L44.8399 35.1183C40.9784 36.071 38.052 38.8325 36.7662 42.7365C36.6242 43.168 35.7642 43.1983 23.6744 43.1983C16.5577 43.1983 10.7349 43.1226 10.7349 43.0297C10.7349 42.5576 13.7912 36.6928 15.1165 34.6214C17.0085 31.6651 17.1378 30.6391 15.7715 29.4185C15.0147 28.7421 14.7296 28.6445 13.854 28.7619C12.497 28.944 12.2933 29.1409 10.5623 31.9391C-3.365 54.4541 -2.82901 83.1662 11.9291 105.165L13.0517 106.839L12.2756 108.343C11.2044 110.42 10.8072 112.904 11.1894 115.135C12.4645 122.579 20.4767 126.639 27.1255 123.21L28.619 122.44L30.959 123.956C41.6867 130.908 52.9782 134.479 65.7364 134.954C89.2838 135.829 111.494 124.263 124.649 104.274C132.116 92.9264 135.989 78.9556 135.478 65.2117C135.004 52.4535 131.433 41.162 124.481 30.4343L122.964 28.0942L123.735 26.6008C124.8 24.5344 125.197 22.0471 124.815 19.8198C123.539 12.3695 115.528 8.31615 108.868 11.7509L107.363 12.527L105.69 11.4044C97.2918 5.77026 87.8535 2.14711 77.5029 0.583211C74.8741 0.186034 65.3999 -0.1515 63.12 0.0707078ZM70.3122 5.84653C76.1026 8.54232 81.8916 21.632 84.614 38.1841C84.9125 39.9985 85.2215 41.8701 85.3007 42.343L85.4448 43.2031L71.8149 43.1347L58.1847 43.0664L57.7026 41.7962C56.8045 39.4298 55.138 37.6465 51.9307 35.6211C51.7756 35.5232 52.6069 31.6899 53.6643 27.6279C57.1436 14.2601 62.9353 5.20128 68.0023 5.20128C68.5103 5.20128 69.5498 5.49158 70.3122 5.84653ZM83.3507 7.1423C85.287 7.63211 88.0591 8.47265 89.5105 9.01022C95.5297 11.2392 104.135 16.0694 103.767 17.0126C103.127 18.6536 102.786 20.7949 102.916 22.3501C103.559 30.0324 111.111 34.5805 118.464 31.714C118.818 31.5757 119.245 32.0425 120.439 33.8714C121.881 36.08 125.27 42.4589 125.27 42.9634C125.27 43.0983 117.924 43.1983 108.035 43.1983H90.7994L90.0777 38.7779C87.9759 25.9038 84.4892 15.1597 80.2926 8.62677C79.6867 7.68331 79.1008 6.76307 78.991 6.58151C78.677 6.06293 79.5054 6.16955 83.3507 7.1423ZM116.592 16.4896C120.896 18.738 120.646 24.8237 116.165 26.8703C112.325 28.6244 107.766 25.2958 108.175 21.0366C108.453 18.1405 111.05 15.7522 113.922 15.7522C114.788 15.7522 115.622 15.9826 116.592 16.4896ZM19.8132 20.3441C18.826 21.3314 18.6792 22.182 19.292 23.3672C20.2004 25.1235 22.9096 25.1235 23.818 23.3672C24.5184 22.0126 24.0917 20.4721 22.8363 19.8229C21.6511 19.2101 20.8005 19.3569 19.8132 20.3441ZM49.9752 40.6999C52.7354 42.0754 53.9662 45.3734 52.7298 48.0806C50.6732 52.583 44.6063 52.8116 42.3259 48.4725C41.6852 47.253 41.5817 46.789 41.6698 45.5278C41.9641 41.3183 46.2343 38.836 49.9752 40.6999ZM36.7662 48.9382C37.7205 51.8359 39.9426 54.4797 42.455 55.7071L43.9579 56.4413L43.8069 63.7407C43.6718 70.2689 43.86 76.5042 44.4234 84.1696L44.5931 86.4787H26.6288H8.66457L8.38695 85.621C7.80979 83.8381 6.78742 79.2235 6.33825 76.3741C5.98963 74.1607 5.87404 71.8864 5.87932 67.3456C5.88803 60.1349 6.40106 56.374 8.26476 49.8619L8.66114 48.4764H22.6375C35.7148 48.4764 36.624 48.5062 36.7662 48.9382ZM86.0713 48.8063C86.6176 50.4905 87.1673 67.467 86.8823 73.8472L86.686 78.2372L85.8148 78.3787C84.2163 78.6381 82.0198 79.9334 80.5306 81.4946C79.2153 82.8733 77.776 85.2996 77.7694 86.1488C77.7654 86.6318 50.0897 86.6318 49.9332 86.1488C49.3875 84.4667 48.837 67.49 49.1217 61.1212L49.3173 56.7438L50.6054 56.4136C52.2321 55.9969 54.7118 54.4058 55.821 53.0676C56.5879 52.1421 57.6662 50.1617 58.0692 48.9382C58.2114 48.5062 59.1155 48.4764 72.0928 48.4764C82.957 48.4764 85.9877 48.5479 86.0713 48.8063ZM127.618 49.3341C128.198 51.1276 129.218 55.7375 129.663 58.5811C130.318 62.7634 130.319 72.0125 129.667 76.1864C129.181 79.2915 128.461 82.6289 127.746 85.0932L127.343 86.4787H113.302H99.2605L98.5047 84.7438C97.5464 82.5439 95.6592 80.4715 93.629 79.3894L92.0459 78.5457L92.1973 71.2303C92.3327 64.6857 92.1451 58.4576 91.5811 50.7856L91.4114 48.4764H109.376H127.34L127.618 49.3341ZM90.9789 84.0376C91.9166 84.5129 92.684 85.1581 93.2036 85.9076C93.9204 86.9416 93.9969 87.2512 93.9969 89.1178C93.9969 90.9844 93.9204 91.2939 93.2036 92.3279C92.276 93.6659 90.0452 94.9245 88.6056 94.9221C85.2693 94.9171 82.6778 92.3794 82.6778 89.1178C82.6778 84.7478 87.0739 82.0573 90.9789 84.0376ZM45.9269 96.1772C48.0703 109.307 51.5716 119.966 55.9611 126.724C56.9542 128.253 57.0827 128.585 56.7074 128.648C55.9949 128.767 49.4073 127.024 46.494 125.945C40.4749 123.716 31.8697 118.886 32.2374 117.943C32.8771 116.302 33.2183 114.16 33.0882 112.605C32.4453 104.923 24.8937 100.375 17.5405 103.241C17.1863 103.379 16.7591 102.913 15.5654 101.084C14.124 98.8751 10.7349 92.4963 10.7349 91.9917C10.7349 91.8568 18.0807 91.7568 27.97 91.7568H45.2051L45.9269 96.1772ZM77.7694 92.0867C77.7707 92.2683 78.0634 93.0426 78.4197 93.8079C79.2198 95.5267 81.3482 97.8171 82.92 98.6511C83.5692 98.9955 84.1005 99.4132 84.1005 99.5792C84.1005 100.188 82.497 106.921 81.7005 109.657C78.7329 119.85 74.4392 127.187 70.3212 129.104C68.5628 129.923 67.4439 129.924 65.6923 129.109C59.8954 126.41 54.3246 113.821 51.3821 96.771C50.9437 94.2309 50.5851 92.0637 50.5848 91.9548C50.5846 91.8458 56.7005 91.7568 64.1757 91.7568C74.8712 91.7568 77.7673 91.827 77.7694 92.0867ZM125.27 91.9292C125.27 92.282 122.146 98.2996 121.041 100.075C116.129 107.972 108.497 115.604 100.6 120.517C97.8333 122.238 93.0099 124.597 89.7623 125.818C86.8834 126.9 80.3491 128.704 79.3085 128.704C78.7707 128.704 78.7696 128.692 79.2452 127.978C83.48 121.622 86.6118 113.348 88.9693 102.288L89.3965 100.283L91.037 99.8273C94.5688 98.8453 97.1126 96.6871 98.5047 93.4917L99.2605 91.7568H112.265C119.418 91.7568 125.27 91.8344 125.27 91.9292ZM24.7535 108.328C29.1708 110.636 28.7303 117.038 24.031 118.833C20.2653 120.271 16.0526 117.126 16.335 113.087C16.5487 110.03 19.0996 107.591 22.0828 107.591C22.9487 107.591 23.7832 107.822 24.7535 108.328Z" fill="url(#paint0_linear_5_195)"/>
<defs>
<linearGradient id="paint0_linear_5_195" x1="135.523" y1="9.97044e-05" x2="-2.07857" y2="3.48742" gradientUnits="userSpaceOnUse">
<stop stop-color="#7A0080"/>
<stop offset="1" stop-color="#CE008D"/>
</linearGradient>
</defs>
</svg>
