<svg width="136" height="135" viewBox="0 0 136 135" fill="none" xmlns="http://www.w3.org/2000/svg">
<path fill-rule="evenodd" clip-rule="evenodd" d="M61.6847 0.154616C56.1954 0.685247 50.5668 1.95427 45.0658 3.9015C41.7052 5.09107 41.0399 5.65628 41.0399 7.32104C41.0399 8.06049 41.2209 8.53436 41.6777 8.99081C42.775 10.0872 43.3753 10.0624 47.1718 8.76562C55.1845 6.02825 62.2195 4.94825 70.1038 5.24471C81.5819 5.67635 91.9651 8.89815 101.671 15.0395C103.41 16.1406 104.99 17.0414 105.18 17.0414C105.881 17.0414 107.324 16.2781 107.601 15.761C108.052 14.9194 107.937 13.4803 107.36 12.7475C107.07 12.3795 105.911 11.4877 104.784 10.7657C96.386 5.38648 87.2182 1.96008 77.3697 0.52025C74.1106 0.0437383 65.0226 -0.16825 61.6847 0.154616ZM19.6502 12.0497C16.7417 12.6194 13.9312 14.7699 12.635 17.4173C11.1799 20.3883 11.1812 23.5671 12.6384 26.4428L13.2686 27.6867L11.5942 30.2179C5.82054 38.9459 2.32548 48.3069 0.841633 59.0166C0.386122 62.3044 0.386122 72.6245 0.841633 75.9123C2.9699 91.2735 9.49131 104.512 20.2016 115.213C36.4753 131.473 59.1617 138.209 81.9935 133.56C86.6942 132.603 93.2901 130.399 94.2136 129.477C95.6237 128.07 94.9351 125.62 92.9924 125.132C92.5363 125.018 91.1896 125.352 88.8082 126.169C84.7039 127.578 80.9472 128.506 76.7092 129.155C72.4479 129.809 63.4991 129.8 59.1388 129.138C48.0033 127.447 37.9488 123.072 29.0088 116.028C24.2093 112.247 18.3352 105.609 14.8882 100.073C10.6824 93.3189 7.56384 84.7741 6.2631 76.4403C5.60309 72.2106 5.60045 62.7274 6.25808 58.5422C7.32208 51.7718 9.23079 45.6756 12.102 39.877C13.5053 37.043 16.482 32.0271 17.2337 31.2295C17.3372 31.12 17.9896 31.2235 18.6832 31.4597C20.552 32.096 23.8063 31.8702 25.7776 30.9676C27.7014 30.0867 29.6286 28.1674 30.6215 26.1434C31.3209 24.7181 31.396 24.3094 31.396 21.9253C31.396 19.6182 31.3072 19.0963 30.6931 17.7871C29.2968 14.8109 26.4754 12.6437 23.2227 12.0484C21.4643 11.7266 21.3005 11.7266 19.6502 12.0497ZM24.1908 17.9894C25.9819 19.1462 26.7352 21.6911 25.8868 23.7199C25.4616 24.7363 23.8605 26.2062 22.9217 26.4417C22.5534 26.5341 21.6688 26.5536 20.9562 26.4853C17.9827 26.1996 16.0476 23.1323 17.1013 20.3748C18.2395 17.3972 21.5499 16.2834 24.1908 17.9894ZM112.622 20.189C110.828 21.9815 112.4 25.0491 114.874 24.5853C116.137 24.3487 116.99 23.3123 116.99 22.0153C116.99 21.1441 116.832 20.8062 116.133 20.1824C114.96 19.1351 113.675 19.1375 112.622 20.189ZM64.4794 22.0628C61.1434 22.5908 57.0285 24.2083 54.3054 26.0621C52.4971 27.2931 49.6106 30.1295 48.2868 31.9761C46.7507 34.1187 45.1347 37.5546 44.4464 40.141C44.0163 41.7577 43.8522 43.3364 43.7465 46.8728L43.6086 51.4928L42.2011 52.3983C40.3508 53.5889 38.845 55.6465 38.283 57.7526C37.8841 59.2471 37.8479 61.3068 37.9208 78.4203L38.0014 97.428L38.6886 98.8921C39.5434 100.713 40.6832 102.028 42.311 103.072C44.9004 104.732 44.5299 104.71 68.6857 104.629L90.5806 104.556L92.0872 103.948C94.1985 103.095 96.0575 101.338 97.1118 99.1986L97.9787 97.4399L98.0532 78.3245C98.1338 57.5794 98.1388 57.6639 96.679 55.3553C95.903 54.1282 94.3187 52.592 93.2196 52.0007L92.3614 51.539L92.2285 46.8958C92.0753 41.5417 91.6264 39.3978 89.9068 35.804C88.5348 32.9365 86.9917 30.8008 84.7313 28.6411C80.2777 24.3857 75.0327 22.1605 68.9148 21.93C67.3163 21.8698 65.3204 21.9295 64.4794 22.0628ZM72.7755 27.7279C77.2556 28.9325 81.2059 31.7562 83.7405 35.5657C86.0818 39.0842 87.0136 42.5262 87.0136 47.6537V50.8328H84.2394H81.4651V47.9774C81.4651 42.8371 80.5205 39.981 77.8778 37.1288C74.9764 33.9978 72.2418 32.8006 67.99 32.8006C65.8081 32.8006 64.8818 32.9223 63.6518 33.37C59.2584 34.9696 55.7298 38.9659 54.8069 43.3878C54.6463 44.1574 54.515 46.1471 54.515 47.8098V50.8328H51.7407H48.9664V47.6881C48.9664 42.6669 49.8341 39.2898 51.9893 35.9234C54.6484 31.7705 59.2384 28.5384 63.7626 27.6331C64.5618 27.4731 65.4535 27.2873 65.7442 27.2202C66.7168 26.9956 71.2756 27.3245 72.7755 27.7279ZM120.402 29.125C119.583 29.7884 119.174 30.729 119.342 31.5667C119.423 31.9698 120.04 33.1519 120.715 34.1931C124.942 40.7228 128.123 49.1662 129.575 57.7128C130.379 62.4475 130.45 71.7716 129.717 76.4403C128.347 85.1625 125.255 93.5375 120.847 100.464C118.461 104.213 118.755 103.966 117.284 103.465C115.343 102.804 112.09 103.06 110.108 104.029C108.121 105 106.341 106.782 105.359 108.786C104.659 110.211 104.584 110.62 104.584 113.004C104.584 115.311 104.673 115.833 105.287 117.142C107.193 121.204 111.81 123.688 116.016 122.914C120.403 122.106 123.576 118.86 124.325 114.413C124.659 112.434 124.323 110.424 123.334 108.471L122.696 107.213L123.976 105.356C129.642 97.1342 133.361 87.4785 135.012 76.7043C135.664 72.4471 135.663 62.4692 135.009 58.2247C133.866 50.7892 131.885 44.3018 128.903 38.2188C126.724 33.7747 124.247 29.6493 123.405 29.0597C122.64 28.5246 121.102 28.5582 120.402 29.125ZM71.5995 38.831C73.2036 39.614 74.698 41.1753 75.4761 42.8807C75.9247 43.8641 76.0523 44.7538 76.1332 47.4668L76.2339 50.8328H68.0164H59.7993V47.9769C59.7993 44.626 60.2284 42.9024 61.4657 41.2814C63.8947 38.0995 68.0452 37.0958 71.5995 38.831ZM90.7153 56.7067C91.1957 57.0335 91.8375 57.6359 92.1416 58.0459C92.6885 58.7833 92.6951 58.9886 92.7657 77.3324L92.8367 95.8733L92.2232 97.0328C91.8021 97.8285 91.2485 98.3829 90.459 98.8L89.3084 99.4079H67.99H46.6717L45.507 98.7942C44.7836 98.4127 44.118 97.7881 43.7494 97.1442L43.1565 96.108L43.221 77.4496C43.2852 58.9818 43.2913 58.7835 43.8385 58.0459C44.1426 57.6359 44.7844 57.0335 45.2647 56.7067L46.1382 56.1127H67.99H89.8418L90.7153 56.7067ZM65.2157 62.0267C62.4058 62.9169 60.2678 64.7229 58.934 67.3325C57.4562 70.2243 57.6536 74.3146 59.4009 76.9968C59.9869 77.8965 60.0263 78.2257 60.1084 82.9367C60.1893 87.567 60.2408 88.016 60.8276 89.2066C63.7972 95.2344 72.1974 95.1985 75.182 89.1457C75.7326 88.0292 75.7918 87.4954 75.8716 82.9367C75.9538 78.2257 75.9932 77.8965 76.5792 76.9968C79.4671 72.5638 77.9209 66.0392 73.2902 63.1186C71.1379 61.7611 67.5752 61.2793 65.2157 62.0267ZM69.9183 67.2932C70.3881 67.4893 71.1514 68.0807 71.614 68.6076C73.1322 70.3349 73.1195 72.7045 71.5805 74.9374L70.6322 76.3128V81.5204V86.7277L69.8665 87.5838C69.2329 88.2924 68.9095 88.4402 67.99 88.4402C67.0705 88.4402 66.7471 88.2924 66.1136 87.5838L65.3479 86.7277V81.5204V76.3128L64.3996 74.9374C62.8608 72.7048 62.8478 70.3349 64.3652 68.6084C64.8276 68.0822 65.5648 67.4954 66.0034 67.3045C67.046 66.8507 68.8458 66.8454 69.9183 67.2932ZM117.235 109.266C119.678 111.128 119.81 114.533 117.517 116.544C115.178 118.596 111.636 117.933 110.23 115.179C109.13 113.026 109.982 110.187 112.107 108.921C113.48 108.103 115.924 108.267 117.235 109.266Z" fill="url(#paint0_linear_5_174)"/>
<defs>
<linearGradient id="paint0_linear_5_174" x1="135.5" y1="9.97044e-05" x2="-2.05459" y2="3.48503" gradientUnits="userSpaceOnUse">
<stop stop-color="#7A0080"/>
<stop offset="1" stop-color="#CE008D"/>
</linearGradient>
</defs>
</svg>
