<svg width="207" height="99" viewBox="0 0 207 99" fill="none" xmlns="http://www.w3.org/2000/svg">
<circle cx="205.303" cy="96.7131" r="1.69672" transform="rotate(-180 205.303 96.7131)" fill="#C9D3E9"/>
<circle cx="191.73" cy="96.7131" r="1.69672" transform="rotate(-180 191.73 96.7131)" fill="#C9D3E9"/>
<circle cx="178.156" cy="96.7131" r="1.69672" transform="rotate(-180 178.156 96.7131)" fill="#C9D3E9"/>
<circle cx="164.582" cy="96.7131" r="1.69672" transform="rotate(-180 164.582 96.7131)" fill="#C9D3E9"/>
<circle cx="151.008" cy="96.7131" r="1.69672" transform="rotate(-180 151.008 96.7131)" fill="#C9D3E9"/>
<circle cx="137.434" cy="96.7131" r="1.69672" transform="rotate(-180 137.434 96.7131)" fill="#C9D3E9"/>
<circle cx="123.861" cy="96.7131" r="1.69672" transform="rotate(-180 123.861 96.7131)" fill="#C9D3E9"/>
<circle cx="110.287" cy="96.7131" r="1.69672" transform="rotate(-180 110.287 96.7131)" fill="#C9D3E9"/>
<circle cx="96.7131" cy="96.7131" r="1.69672" transform="rotate(-180 96.7131 96.7131)" fill="#C9D3E9"/>
<circle cx="83.1393" cy="96.7131" r="1.69672" transform="rotate(-180 83.1393 96.7131)" fill="#C9D3E9"/>
<circle cx="69.5656" cy="96.7131" r="1.69672" transform="rotate(-180 69.5656 96.7131)" fill="#C9D3E9"/>
<circle cx="55.9918" cy="96.7131" r="1.69672" transform="rotate(-180 55.9918 96.7131)" fill="#C9D3E9"/>
<circle cx="42.418" cy="96.7131" r="1.69672" transform="rotate(-180 42.418 96.7131)" fill="#C9D3E9"/>
<circle cx="28.8442" cy="96.7131" r="1.69672" transform="rotate(-180 28.8442 96.7131)" fill="#C9D3E9"/>
<circle cx="15.2705" cy="96.7131" r="1.69672" transform="rotate(-180 15.2705 96.7131)" fill="#C9D3E9"/>
<circle cx="1.6967" cy="96.7131" r="1.69672" transform="rotate(-180 1.6967 96.7131)" fill="#C9D3E9"/>
<circle cx="205.303" cy="83.1394" r="1.69672" transform="rotate(-180 205.303 83.1394)" fill="#C9D3E9"/>
<circle cx="191.73" cy="83.1394" r="1.69672" transform="rotate(-180 191.73 83.1394)" fill="#C9D3E9"/>
<circle cx="178.156" cy="83.1394" r="1.69672" transform="rotate(-180 178.156 83.1394)" fill="#C9D3E9"/>
<circle cx="164.582" cy="83.1394" r="1.69672" transform="rotate(-180 164.582 83.1394)" fill="#C9D3E9"/>
<circle cx="151.008" cy="83.1394" r="1.69672" transform="rotate(-180 151.008 83.1394)" fill="#C9D3E9"/>
<circle cx="137.434" cy="83.1394" r="1.69672" transform="rotate(-180 137.434 83.1394)" fill="#C9D3E9"/>
<circle cx="123.861" cy="83.1394" r="1.69672" transform="rotate(-180 123.861 83.1394)" fill="#C9D3E9"/>
<circle cx="110.287" cy="83.1393" r="1.69672" transform="rotate(-180 110.287 83.1393)" fill="#C9D3E9"/>
<circle cx="96.7131" cy="83.1393" r="1.69672" transform="rotate(-180 96.7131 83.1393)" fill="#C9D3E9"/>
<circle cx="83.1393" cy="83.1393" r="1.69672" transform="rotate(-180 83.1393 83.1393)" fill="#C9D3E9"/>
<circle cx="69.5656" cy="83.1393" r="1.69672" transform="rotate(-180 69.5656 83.1393)" fill="#C9D3E9"/>
<circle cx="55.9918" cy="83.1393" r="1.69672" transform="rotate(-180 55.9918 83.1393)" fill="#C9D3E9"/>
<circle cx="42.418" cy="83.1393" r="1.69672" transform="rotate(-180 42.418 83.1393)" fill="#C9D3E9"/>
<circle cx="28.8442" cy="83.1393" r="1.69672" transform="rotate(-180 28.8442 83.1393)" fill="#C9D3E9"/>
<circle cx="15.2705" cy="83.1393" r="1.69672" transform="rotate(-180 15.2705 83.1393)" fill="#C9D3E9"/>
<circle cx="1.6967" cy="83.1393" r="1.69672" transform="rotate(-180 1.6967 83.1393)" fill="#C9D3E9"/>
<circle cx="205.303" cy="69.5656" r="1.69672" transform="rotate(-180 205.303 69.5656)" fill="#C9D3E9"/>
<circle cx="191.73" cy="69.5656" r="1.69672" transform="rotate(-180 191.73 69.5656)" fill="#C9D3E9"/>
<circle cx="178.156" cy="69.5656" r="1.69672" transform="rotate(-180 178.156 69.5656)" fill="#C9D3E9"/>
<circle cx="164.582" cy="69.5656" r="1.69672" transform="rotate(-180 164.582 69.5656)" fill="#C9D3E9"/>
<circle cx="151.008" cy="69.5656" r="1.69672" transform="rotate(-180 151.008 69.5656)" fill="#C9D3E9"/>
<circle cx="137.434" cy="69.5656" r="1.69672" transform="rotate(-180 137.434 69.5656)" fill="#C9D3E9"/>
<circle cx="123.861" cy="69.5656" r="1.69672" transform="rotate(-180 123.861 69.5656)" fill="#C9D3E9"/>
<circle cx="110.287" cy="69.5656" r="1.69672" transform="rotate(-180 110.287 69.5656)" fill="#C9D3E9"/>
<circle cx="96.7131" cy="69.5656" r="1.69672" transform="rotate(-180 96.7131 69.5656)" fill="#C9D3E9"/>
<circle cx="83.1393" cy="69.5656" r="1.69672" transform="rotate(-180 83.1393 69.5656)" fill="#C9D3E9"/>
<circle cx="69.5656" cy="69.5656" r="1.69672" transform="rotate(-180 69.5656 69.5656)" fill="#C9D3E9"/>
<circle cx="55.9918" cy="69.5656" r="1.69672" transform="rotate(-180 55.9918 69.5656)" fill="#C9D3E9"/>
<circle cx="42.418" cy="69.5656" r="1.69672" transform="rotate(-180 42.418 69.5656)" fill="#C9D3E9"/>
<circle cx="28.8442" cy="69.5656" r="1.69672" transform="rotate(-180 28.8442 69.5656)" fill="#C9D3E9"/>
<circle cx="15.2705" cy="69.5656" r="1.69672" transform="rotate(-180 15.2705 69.5656)" fill="#C9D3E9"/>
<circle cx="1.6967" cy="69.5656" r="1.69672" transform="rotate(-180 1.6967 69.5656)" fill="#C9D3E9"/>
<circle cx="205.303" cy="55.9918" r="1.69672" transform="rotate(-180 205.303 55.9918)" fill="#C9D3E9"/>
<circle cx="191.73" cy="55.9918" r="1.69672" transform="rotate(-180 191.73 55.9918)" fill="#C9D3E9"/>
<circle cx="178.156" cy="55.9918" r="1.69672" transform="rotate(-180 178.156 55.9918)" fill="#C9D3E9"/>
<circle cx="164.582" cy="55.9918" r="1.69672" transform="rotate(-180 164.582 55.9918)" fill="#C9D3E9"/>
<circle cx="151.008" cy="55.9918" r="1.69672" transform="rotate(-180 151.008 55.9918)" fill="#C9D3E9"/>
<circle cx="137.434" cy="55.9918" r="1.69672" transform="rotate(-180 137.434 55.9918)" fill="#C9D3E9"/>
<circle cx="123.861" cy="55.9918" r="1.69672" transform="rotate(-180 123.861 55.9918)" fill="#C9D3E9"/>
<circle cx="110.287" cy="55.9918" r="1.69672" transform="rotate(-180 110.287 55.9918)" fill="#C9D3E9"/>
<circle cx="96.7131" cy="55.9918" r="1.69672" transform="rotate(-180 96.7131 55.9918)" fill="#C9D3E9"/>
<circle cx="83.1393" cy="55.9918" r="1.69672" transform="rotate(-180 83.1393 55.9918)" fill="#C9D3E9"/>
<circle cx="69.5656" cy="55.9918" r="1.69672" transform="rotate(-180 69.5656 55.9918)" fill="#C9D3E9"/>
<circle cx="55.9918" cy="55.9918" r="1.69672" transform="rotate(-180 55.9918 55.9918)" fill="#C9D3E9"/>
<circle cx="42.418" cy="55.9918" r="1.69672" transform="rotate(-180 42.418 55.9918)" fill="#C9D3E9"/>
<circle cx="28.8442" cy="55.9918" r="1.69672" transform="rotate(-180 28.8442 55.9918)" fill="#C9D3E9"/>
<circle cx="15.2705" cy="55.9918" r="1.69672" transform="rotate(-180 15.2705 55.9918)" fill="#C9D3E9"/>
<circle cx="1.6967" cy="55.9918" r="1.69672" transform="rotate(-180 1.6967 55.9918)" fill="#C9D3E9"/>
<circle cx="205.303" cy="42.418" r="1.69672" transform="rotate(-180 205.303 42.418)" fill="#C9D3E9"/>
<circle cx="191.73" cy="42.418" r="1.69672" transform="rotate(-180 191.73 42.418)" fill="#C9D3E9"/>
<circle cx="178.156" cy="42.418" r="1.69672" transform="rotate(-180 178.156 42.418)" fill="#C9D3E9"/>
<circle cx="164.582" cy="42.418" r="1.69672" transform="rotate(-180 164.582 42.418)" fill="#C9D3E9"/>
<circle cx="151.008" cy="42.418" r="1.69672" transform="rotate(-180 151.008 42.418)" fill="#C9D3E9"/>
<circle cx="137.434" cy="42.418" r="1.69672" transform="rotate(-180 137.434 42.418)" fill="#C9D3E9"/>
<circle cx="123.861" cy="42.418" r="1.69672" transform="rotate(-180 123.861 42.418)" fill="#C9D3E9"/>
<circle cx="110.287" cy="42.418" r="1.69672" transform="rotate(-180 110.287 42.418)" fill="#C9D3E9"/>
<circle cx="96.7131" cy="42.418" r="1.69672" transform="rotate(-180 96.7131 42.418)" fill="#C9D3E9"/>
<circle cx="83.1394" cy="42.418" r="1.69672" transform="rotate(-180 83.1394 42.418)" fill="#C9D3E9"/>
<circle cx="69.5656" cy="42.418" r="1.69672" transform="rotate(-180 69.5656 42.418)" fill="#C9D3E9"/>
<circle cx="55.9918" cy="42.418" r="1.69672" transform="rotate(-180 55.9918 42.418)" fill="#C9D3E9"/>
<circle cx="42.418" cy="42.418" r="1.69672" transform="rotate(-180 42.418 42.418)" fill="#C9D3E9"/>
<circle cx="28.8442" cy="42.418" r="1.69672" transform="rotate(-180 28.8442 42.418)" fill="#C9D3E9"/>
<circle cx="15.2705" cy="42.418" r="1.69672" transform="rotate(-180 15.2705 42.418)" fill="#C9D3E9"/>
<circle cx="1.6967" cy="42.418" r="1.69672" transform="rotate(-180 1.6967 42.418)" fill="#C9D3E9"/>
<circle cx="205.303" cy="28.8443" r="1.69672" transform="rotate(-180 205.303 28.8443)" fill="#C9D3E9"/>
<circle cx="191.73" cy="28.8443" r="1.69672" transform="rotate(-180 191.73 28.8443)" fill="#C9D3E9"/>
<circle cx="178.156" cy="28.8443" r="1.69672" transform="rotate(-180 178.156 28.8443)" fill="#C9D3E9"/>
<circle cx="164.582" cy="28.8443" r="1.69672" transform="rotate(-180 164.582 28.8443)" fill="#C9D3E9"/>
<circle cx="151.008" cy="28.8443" r="1.69672" transform="rotate(-180 151.008 28.8443)" fill="#C9D3E9"/>
<circle cx="137.434" cy="28.8443" r="1.69672" transform="rotate(-180 137.434 28.8443)" fill="#C9D3E9"/>
<circle cx="123.861" cy="28.8443" r="1.69672" transform="rotate(-180 123.861 28.8443)" fill="#C9D3E9"/>
<circle cx="110.287" cy="28.8443" r="1.69672" transform="rotate(-180 110.287 28.8443)" fill="#C9D3E9"/>
<circle cx="96.7131" cy="28.8443" r="1.69672" transform="rotate(-180 96.7131 28.8443)" fill="#C9D3E9"/>
<circle cx="83.1394" cy="28.8443" r="1.69672" transform="rotate(-180 83.1394 28.8443)" fill="#C9D3E9"/>
<circle cx="69.5656" cy="28.8443" r="1.69672" transform="rotate(-180 69.5656 28.8443)" fill="#C9D3E9"/>
<circle cx="55.9918" cy="28.8443" r="1.69672" transform="rotate(-180 55.9918 28.8443)" fill="#C9D3E9"/>
<circle cx="42.418" cy="28.8443" r="1.69672" transform="rotate(-180 42.418 28.8443)" fill="#C9D3E9"/>
<circle cx="28.8442" cy="28.8443" r="1.69672" transform="rotate(-180 28.8442 28.8443)" fill="#C9D3E9"/>
<circle cx="15.2705" cy="28.8443" r="1.69672" transform="rotate(-180 15.2705 28.8443)" fill="#C9D3E9"/>
<circle cx="1.6967" cy="28.8443" r="1.69672" transform="rotate(-180 1.6967 28.8443)" fill="#C9D3E9"/>
<circle cx="205.303" cy="15.2705" r="1.69672" transform="rotate(-180 205.303 15.2705)" fill="#C9D3E9"/>
<circle cx="191.73" cy="15.2705" r="1.69672" transform="rotate(-180 191.73 15.2705)" fill="#C9D3E9"/>
<circle cx="178.156" cy="15.2705" r="1.69672" transform="rotate(-180 178.156 15.2705)" fill="#C9D3E9"/>
<circle cx="164.582" cy="15.2705" r="1.69672" transform="rotate(-180 164.582 15.2705)" fill="#C9D3E9"/>
<circle cx="151.008" cy="15.2705" r="1.69672" transform="rotate(-180 151.008 15.2705)" fill="#C9D3E9"/>
<circle cx="137.434" cy="15.2705" r="1.69672" transform="rotate(-180 137.434 15.2705)" fill="#C9D3E9"/>
<circle cx="123.861" cy="15.2705" r="1.69672" transform="rotate(-180 123.861 15.2705)" fill="#C9D3E9"/>
<circle cx="110.287" cy="15.2705" r="1.69672" transform="rotate(-180 110.287 15.2705)" fill="#C9D3E9"/>
<circle cx="96.7131" cy="15.2705" r="1.69672" transform="rotate(-180 96.7131 15.2705)" fill="#C9D3E9"/>
<circle cx="83.1394" cy="15.2705" r="1.69672" transform="rotate(-180 83.1394 15.2705)" fill="#C9D3E9"/>
<circle cx="69.5656" cy="15.2705" r="1.69672" transform="rotate(-180 69.5656 15.2705)" fill="#C9D3E9"/>
<circle cx="55.9918" cy="15.2705" r="1.69672" transform="rotate(-180 55.9918 15.2705)" fill="#C9D3E9"/>
<circle cx="42.418" cy="15.2705" r="1.69672" transform="rotate(-180 42.418 15.2705)" fill="#C9D3E9"/>
<circle cx="28.8442" cy="15.2705" r="1.69672" transform="rotate(-180 28.8442 15.2705)" fill="#C9D3E9"/>
<circle cx="15.2705" cy="15.2705" r="1.69672" transform="rotate(-180 15.2705 15.2705)" fill="#C9D3E9"/>
<circle cx="1.6967" cy="15.2705" r="1.69672" transform="rotate(-180 1.6967 15.2705)" fill="#C9D3E9"/>
<circle cx="205.303" cy="1.69673" r="1.69672" transform="rotate(-180 205.303 1.69673)" fill="#C9D3E9"/>
<circle cx="191.73" cy="1.69673" r="1.69672" transform="rotate(-180 191.73 1.69673)" fill="#C9D3E9"/>
<circle cx="178.156" cy="1.69673" r="1.69672" transform="rotate(-180 178.156 1.69673)" fill="#C9D3E9"/>
<circle cx="164.582" cy="1.69673" r="1.69672" transform="rotate(-180 164.582 1.69673)" fill="#C9D3E9"/>
<circle cx="151.008" cy="1.69673" r="1.69672" transform="rotate(-180 151.008 1.69673)" fill="#C9D3E9"/>
<circle cx="137.434" cy="1.69673" r="1.69672" transform="rotate(-180 137.434 1.69673)" fill="#C9D3E9"/>
<circle cx="123.861" cy="1.69673" r="1.69672" transform="rotate(-180 123.861 1.69673)" fill="#C9D3E9"/>
<circle cx="110.287" cy="1.69673" r="1.69672" transform="rotate(-180 110.287 1.69673)" fill="#C9D3E9"/>
<circle cx="96.7131" cy="1.69673" r="1.69672" transform="rotate(-180 96.7131 1.69673)" fill="#C9D3E9"/>
<circle cx="83.1394" cy="1.69672" r="1.69672" transform="rotate(-180 83.1394 1.69672)" fill="#C9D3E9"/>
<circle cx="69.5656" cy="1.69672" r="1.69672" transform="rotate(-180 69.5656 1.69672)" fill="#C9D3E9"/>
<circle cx="55.9918" cy="1.69672" r="1.69672" transform="rotate(-180 55.9918 1.69672)" fill="#C9D3E9"/>
<circle cx="42.418" cy="1.69672" r="1.69672" transform="rotate(-180 42.418 1.69672)" fill="#C9D3E9"/>
<circle cx="28.8443" cy="1.69672" r="1.69672" transform="rotate(-180 28.8443 1.69672)" fill="#C9D3E9"/>
<circle cx="15.2705" cy="1.69672" r="1.69672" transform="rotate(-180 15.2705 1.69672)" fill="#C9D3E9"/>
<circle cx="1.69671" cy="1.69671" r="1.69672" transform="rotate(-180 1.69671 1.69671)" fill="#C9D3E9"/>
</svg>
