<svg width="99" height="207" viewBox="0 0 99 207" fill="none" xmlns="http://www.w3.org/2000/svg">
<circle cx="96.7132" cy="1.69672" r="1.69672" transform="rotate(90 96.7132 1.69672)" fill="#C9D3E9"/>
<circle cx="96.7132" cy="15.2705" r="1.69672" transform="rotate(90 96.7132 15.2705)" fill="#C9D3E9"/>
<circle cx="96.7132" cy="28.8443" r="1.69672" transform="rotate(90 96.7132 28.8443)" fill="#C9D3E9"/>
<circle cx="96.7132" cy="42.4179" r="1.69672" transform="rotate(90 96.7132 42.4179)" fill="#C9D3E9"/>
<circle cx="96.7132" cy="55.9919" r="1.69672" transform="rotate(90 96.7132 55.9919)" fill="#C9D3E9"/>
<circle cx="96.7132" cy="69.5656" r="1.69672" transform="rotate(90 96.7132 69.5656)" fill="#C9D3E9"/>
<circle cx="96.7132" cy="83.1394" r="1.69672" transform="rotate(90 96.7132 83.1394)" fill="#C9D3E9"/>
<circle cx="96.7132" cy="96.7131" r="1.69672" transform="rotate(90 96.7132 96.7131)" fill="#C9D3E9"/>
<circle cx="96.7132" cy="110.287" r="1.69672" transform="rotate(90 96.7132 110.287)" fill="#C9D3E9"/>
<circle cx="96.7132" cy="123.861" r="1.69672" transform="rotate(90 96.7132 123.861)" fill="#C9D3E9"/>
<circle cx="96.7132" cy="137.435" r="1.69672" transform="rotate(90 96.7132 137.435)" fill="#C9D3E9"/>
<circle cx="96.7132" cy="151.008" r="1.69672" transform="rotate(90 96.7132 151.008)" fill="#C9D3E9"/>
<circle cx="96.7132" cy="164.582" r="1.69672" transform="rotate(90 96.7132 164.582)" fill="#C9D3E9"/>
<circle cx="96.7132" cy="178.156" r="1.69672" transform="rotate(90 96.7132 178.156)" fill="#C9D3E9"/>
<circle cx="96.7132" cy="191.729" r="1.69672" transform="rotate(90 96.7132 191.729)" fill="#C9D3E9"/>
<circle cx="96.7132" cy="205.303" r="1.69672" transform="rotate(90 96.7132 205.303)" fill="#C9D3E9"/>
<circle cx="83.1394" cy="1.69672" r="1.69672" transform="rotate(90 83.1394 1.69672)" fill="#C9D3E9"/>
<circle cx="83.1394" cy="15.2705" r="1.69672" transform="rotate(90 83.1394 15.2705)" fill="#C9D3E9"/>
<circle cx="83.1394" cy="28.8443" r="1.69672" transform="rotate(90 83.1394 28.8443)" fill="#C9D3E9"/>
<circle cx="83.1394" cy="42.4179" r="1.69672" transform="rotate(90 83.1394 42.4179)" fill="#C9D3E9"/>
<circle cx="83.1394" cy="55.9919" r="1.69672" transform="rotate(90 83.1394 55.9919)" fill="#C9D3E9"/>
<circle cx="83.1394" cy="69.5656" r="1.69672" transform="rotate(90 83.1394 69.5656)" fill="#C9D3E9"/>
<circle cx="83.1394" cy="83.1394" r="1.69672" transform="rotate(90 83.1394 83.1394)" fill="#C9D3E9"/>
<circle cx="83.1394" cy="96.7131" r="1.69672" transform="rotate(90 83.1394 96.7131)" fill="#C9D3E9"/>
<circle cx="83.1394" cy="110.287" r="1.69672" transform="rotate(90 83.1394 110.287)" fill="#C9D3E9"/>
<circle cx="83.1394" cy="123.861" r="1.69672" transform="rotate(90 83.1394 123.861)" fill="#C9D3E9"/>
<circle cx="83.1394" cy="137.435" r="1.69672" transform="rotate(90 83.1394 137.435)" fill="#C9D3E9"/>
<circle cx="83.1394" cy="151.008" r="1.69672" transform="rotate(90 83.1394 151.008)" fill="#C9D3E9"/>
<circle cx="83.1394" cy="164.582" r="1.69672" transform="rotate(90 83.1394 164.582)" fill="#C9D3E9"/>
<circle cx="83.1394" cy="178.156" r="1.69672" transform="rotate(90 83.1394 178.156)" fill="#C9D3E9"/>
<circle cx="83.1394" cy="191.729" r="1.69672" transform="rotate(90 83.1394 191.729)" fill="#C9D3E9"/>
<circle cx="83.1394" cy="205.303" r="1.69672" transform="rotate(90 83.1394 205.303)" fill="#C9D3E9"/>
<circle cx="69.5657" cy="1.69672" r="1.69672" transform="rotate(90 69.5657 1.69672)" fill="#C9D3E9"/>
<circle cx="69.5657" cy="15.2705" r="1.69672" transform="rotate(90 69.5657 15.2705)" fill="#C9D3E9"/>
<circle cx="69.5657" cy="28.8443" r="1.69672" transform="rotate(90 69.5657 28.8443)" fill="#C9D3E9"/>
<circle cx="69.5657" cy="42.4179" r="1.69672" transform="rotate(90 69.5657 42.4179)" fill="#C9D3E9"/>
<circle cx="69.5657" cy="55.9919" r="1.69672" transform="rotate(90 69.5657 55.9919)" fill="#C9D3E9"/>
<circle cx="69.5657" cy="69.5656" r="1.69672" transform="rotate(90 69.5657 69.5656)" fill="#C9D3E9"/>
<circle cx="69.5657" cy="83.1394" r="1.69672" transform="rotate(90 69.5657 83.1394)" fill="#C9D3E9"/>
<circle cx="69.5657" cy="96.7131" r="1.69672" transform="rotate(90 69.5657 96.7131)" fill="#C9D3E9"/>
<circle cx="69.5657" cy="110.287" r="1.69672" transform="rotate(90 69.5657 110.287)" fill="#C9D3E9"/>
<circle cx="69.5657" cy="123.861" r="1.69672" transform="rotate(90 69.5657 123.861)" fill="#C9D3E9"/>
<circle cx="69.5657" cy="137.435" r="1.69672" transform="rotate(90 69.5657 137.435)" fill="#C9D3E9"/>
<circle cx="69.5657" cy="151.008" r="1.69672" transform="rotate(90 69.5657 151.008)" fill="#C9D3E9"/>
<circle cx="69.5657" cy="164.582" r="1.69672" transform="rotate(90 69.5657 164.582)" fill="#C9D3E9"/>
<circle cx="69.5657" cy="178.156" r="1.69672" transform="rotate(90 69.5657 178.156)" fill="#C9D3E9"/>
<circle cx="69.5657" cy="191.729" r="1.69672" transform="rotate(90 69.5657 191.729)" fill="#C9D3E9"/>
<circle cx="69.5657" cy="205.303" r="1.69672" transform="rotate(90 69.5657 205.303)" fill="#C9D3E9"/>
<circle cx="55.9919" cy="1.69672" r="1.69672" transform="rotate(90 55.9919 1.69672)" fill="#C9D3E9"/>
<circle cx="55.9919" cy="15.2705" r="1.69672" transform="rotate(90 55.9919 15.2705)" fill="#C9D3E9"/>
<circle cx="55.9919" cy="28.8443" r="1.69672" transform="rotate(90 55.9919 28.8443)" fill="#C9D3E9"/>
<circle cx="55.9919" cy="42.4179" r="1.69672" transform="rotate(90 55.9919 42.4179)" fill="#C9D3E9"/>
<circle cx="55.9919" cy="55.9919" r="1.69672" transform="rotate(90 55.9919 55.9919)" fill="#C9D3E9"/>
<circle cx="55.9919" cy="69.5656" r="1.69672" transform="rotate(90 55.9919 69.5656)" fill="#C9D3E9"/>
<circle cx="55.9919" cy="83.1394" r="1.69672" transform="rotate(90 55.9919 83.1394)" fill="#C9D3E9"/>
<circle cx="55.9919" cy="96.7131" r="1.69672" transform="rotate(90 55.9919 96.7131)" fill="#C9D3E9"/>
<circle cx="55.9919" cy="110.287" r="1.69672" transform="rotate(90 55.9919 110.287)" fill="#C9D3E9"/>
<circle cx="55.9919" cy="123.861" r="1.69672" transform="rotate(90 55.9919 123.861)" fill="#C9D3E9"/>
<circle cx="55.9919" cy="137.435" r="1.69672" transform="rotate(90 55.9919 137.435)" fill="#C9D3E9"/>
<circle cx="55.9919" cy="151.008" r="1.69672" transform="rotate(90 55.9919 151.008)" fill="#C9D3E9"/>
<circle cx="55.9919" cy="164.582" r="1.69672" transform="rotate(90 55.9919 164.582)" fill="#C9D3E9"/>
<circle cx="55.9919" cy="178.156" r="1.69672" transform="rotate(90 55.9919 178.156)" fill="#C9D3E9"/>
<circle cx="55.9919" cy="191.729" r="1.69672" transform="rotate(90 55.9919 191.729)" fill="#C9D3E9"/>
<circle cx="55.9919" cy="205.303" r="1.69672" transform="rotate(90 55.9919 205.303)" fill="#C9D3E9"/>
<circle cx="42.4181" cy="1.69672" r="1.69672" transform="rotate(90 42.4181 1.69672)" fill="#C9D3E9"/>
<circle cx="42.4181" cy="15.2705" r="1.69672" transform="rotate(90 42.4181 15.2705)" fill="#C9D3E9"/>
<circle cx="42.4181" cy="28.8443" r="1.69672" transform="rotate(90 42.4181 28.8443)" fill="#C9D3E9"/>
<circle cx="42.4181" cy="42.4179" r="1.69672" transform="rotate(90 42.4181 42.4179)" fill="#C9D3E9"/>
<circle cx="42.4181" cy="55.9919" r="1.69672" transform="rotate(90 42.4181 55.9919)" fill="#C9D3E9"/>
<circle cx="42.4181" cy="69.5656" r="1.69672" transform="rotate(90 42.4181 69.5656)" fill="#C9D3E9"/>
<circle cx="42.4181" cy="83.1394" r="1.69672" transform="rotate(90 42.4181 83.1394)" fill="#C9D3E9"/>
<circle cx="42.4181" cy="96.7131" r="1.69672" transform="rotate(90 42.4181 96.7131)" fill="#C9D3E9"/>
<circle cx="42.4181" cy="110.287" r="1.69672" transform="rotate(90 42.4181 110.287)" fill="#C9D3E9"/>
<circle cx="42.4181" cy="123.861" r="1.69672" transform="rotate(90 42.4181 123.861)" fill="#C9D3E9"/>
<circle cx="42.4181" cy="137.435" r="1.69672" transform="rotate(90 42.4181 137.435)" fill="#C9D3E9"/>
<circle cx="42.4181" cy="151.008" r="1.69672" transform="rotate(90 42.4181 151.008)" fill="#C9D3E9"/>
<circle cx="42.4181" cy="164.582" r="1.69672" transform="rotate(90 42.4181 164.582)" fill="#C9D3E9"/>
<circle cx="42.4181" cy="178.156" r="1.69672" transform="rotate(90 42.4181 178.156)" fill="#C9D3E9"/>
<circle cx="42.4181" cy="191.729" r="1.69672" transform="rotate(90 42.4181 191.729)" fill="#C9D3E9"/>
<circle cx="42.4181" cy="205.303" r="1.69672" transform="rotate(90 42.4181 205.303)" fill="#C9D3E9"/>
<circle cx="28.8444" cy="1.69672" r="1.69672" transform="rotate(90 28.8444 1.69672)" fill="#C9D3E9"/>
<circle cx="28.8444" cy="15.2705" r="1.69672" transform="rotate(90 28.8444 15.2705)" fill="#C9D3E9"/>
<circle cx="28.8444" cy="28.8443" r="1.69672" transform="rotate(90 28.8444 28.8443)" fill="#C9D3E9"/>
<circle cx="28.8444" cy="42.4179" r="1.69672" transform="rotate(90 28.8444 42.4179)" fill="#C9D3E9"/>
<circle cx="28.8444" cy="55.9919" r="1.69672" transform="rotate(90 28.8444 55.9919)" fill="#C9D3E9"/>
<circle cx="28.8444" cy="69.5656" r="1.69672" transform="rotate(90 28.8444 69.5656)" fill="#C9D3E9"/>
<circle cx="28.8444" cy="83.1394" r="1.69672" transform="rotate(90 28.8444 83.1394)" fill="#C9D3E9"/>
<circle cx="28.8444" cy="96.7131" r="1.69672" transform="rotate(90 28.8444 96.7131)" fill="#C9D3E9"/>
<circle cx="28.8444" cy="110.287" r="1.69672" transform="rotate(90 28.8444 110.287)" fill="#C9D3E9"/>
<circle cx="28.8444" cy="123.861" r="1.69672" transform="rotate(90 28.8444 123.861)" fill="#C9D3E9"/>
<circle cx="28.8444" cy="137.435" r="1.69672" transform="rotate(90 28.8444 137.435)" fill="#C9D3E9"/>
<circle cx="28.8444" cy="151.008" r="1.69672" transform="rotate(90 28.8444 151.008)" fill="#C9D3E9"/>
<circle cx="28.8444" cy="164.582" r="1.69672" transform="rotate(90 28.8444 164.582)" fill="#C9D3E9"/>
<circle cx="28.8444" cy="178.156" r="1.69672" transform="rotate(90 28.8444 178.156)" fill="#C9D3E9"/>
<circle cx="28.8444" cy="191.729" r="1.69672" transform="rotate(90 28.8444 191.729)" fill="#C9D3E9"/>
<circle cx="28.8444" cy="205.303" r="1.69672" transform="rotate(90 28.8444 205.303)" fill="#C9D3E9"/>
<circle cx="15.2706" cy="1.69672" r="1.69672" transform="rotate(90 15.2706 1.69672)" fill="#C9D3E9"/>
<circle cx="15.2706" cy="15.2705" r="1.69672" transform="rotate(90 15.2706 15.2705)" fill="#C9D3E9"/>
<circle cx="15.2706" cy="28.8443" r="1.69672" transform="rotate(90 15.2706 28.8443)" fill="#C9D3E9"/>
<circle cx="15.2706" cy="42.4179" r="1.69672" transform="rotate(90 15.2706 42.4179)" fill="#C9D3E9"/>
<circle cx="15.2706" cy="55.9919" r="1.69672" transform="rotate(90 15.2706 55.9919)" fill="#C9D3E9"/>
<circle cx="15.2706" cy="69.5656" r="1.69672" transform="rotate(90 15.2706 69.5656)" fill="#C9D3E9"/>
<circle cx="15.2706" cy="83.1394" r="1.69672" transform="rotate(90 15.2706 83.1394)" fill="#C9D3E9"/>
<circle cx="15.2706" cy="96.7131" r="1.69672" transform="rotate(90 15.2706 96.7131)" fill="#C9D3E9"/>
<circle cx="15.2706" cy="110.287" r="1.69672" transform="rotate(90 15.2706 110.287)" fill="#C9D3E9"/>
<circle cx="15.2706" cy="123.861" r="1.69672" transform="rotate(90 15.2706 123.861)" fill="#C9D3E9"/>
<circle cx="15.2706" cy="137.435" r="1.69672" transform="rotate(90 15.2706 137.435)" fill="#C9D3E9"/>
<circle cx="15.2706" cy="151.008" r="1.69672" transform="rotate(90 15.2706 151.008)" fill="#C9D3E9"/>
<circle cx="15.2706" cy="164.582" r="1.69672" transform="rotate(90 15.2706 164.582)" fill="#C9D3E9"/>
<circle cx="15.2706" cy="178.156" r="1.69672" transform="rotate(90 15.2706 178.156)" fill="#C9D3E9"/>
<circle cx="15.2706" cy="191.729" r="1.69672" transform="rotate(90 15.2706 191.729)" fill="#C9D3E9"/>
<circle cx="15.2706" cy="205.303" r="1.69672" transform="rotate(90 15.2706 205.303)" fill="#C9D3E9"/>
<circle cx="1.6968" cy="1.69672" r="1.69672" transform="rotate(90 1.6968 1.69672)" fill="#C9D3E9"/>
<circle cx="1.6968" cy="15.2705" r="1.69672" transform="rotate(90 1.6968 15.2705)" fill="#C9D3E9"/>
<circle cx="1.6968" cy="28.8443" r="1.69672" transform="rotate(90 1.6968 28.8443)" fill="#C9D3E9"/>
<circle cx="1.6968" cy="42.4179" r="1.69672" transform="rotate(90 1.6968 42.4179)" fill="#C9D3E9"/>
<circle cx="1.6968" cy="55.9919" r="1.69672" transform="rotate(90 1.6968 55.9919)" fill="#C9D3E9"/>
<circle cx="1.6968" cy="69.5656" r="1.69672" transform="rotate(90 1.6968 69.5656)" fill="#C9D3E9"/>
<circle cx="1.6968" cy="83.1394" r="1.69672" transform="rotate(90 1.6968 83.1394)" fill="#C9D3E9"/>
<circle cx="1.6968" cy="96.7131" r="1.69672" transform="rotate(90 1.6968 96.7131)" fill="#C9D3E9"/>
<circle cx="1.6968" cy="110.287" r="1.69672" transform="rotate(90 1.6968 110.287)" fill="#C9D3E9"/>
<circle cx="1.6968" cy="123.861" r="1.69672" transform="rotate(90 1.6968 123.861)" fill="#C9D3E9"/>
<circle cx="1.6968" cy="137.435" r="1.69672" transform="rotate(90 1.6968 137.435)" fill="#C9D3E9"/>
<circle cx="1.6968" cy="151.008" r="1.69672" transform="rotate(90 1.6968 151.008)" fill="#C9D3E9"/>
<circle cx="1.6968" cy="164.582" r="1.69672" transform="rotate(90 1.6968 164.582)" fill="#C9D3E9"/>
<circle cx="1.6968" cy="178.156" r="1.69672" transform="rotate(90 1.6968 178.156)" fill="#C9D3E9"/>
<circle cx="1.6968" cy="191.729" r="1.69672" transform="rotate(90 1.6968 191.729)" fill="#C9D3E9"/>
<circle cx="1.6968" cy="205.303" r="1.69672" transform="rotate(90 1.6968 205.303)" fill="#C9D3E9"/>
</svg>
