<svg width="24" height="24" viewBox="0 0 24 24" fill="none" xmlns="http://www.w3.org/2000/svg">
<rect width="24" height="24" fill="white"/>
<path d="M12.2997 6.34605C12.8895 5.41876 14.367 3.51702 16.8761 2.86871C16.8761 2.86871 14.1736 3.95709 12.6607 6.7704C18.2234 7.5641 18.8349 2.11823 18.8349 2.11823C13.6351 1.24595 12.5186 5.12603 12.2997 6.34605Z" fill="#8CC63F"/>
<path d="M12.0254 6.5621C11.6881 6.03165 10.8419 4.94327 9.40585 4.57196C9.40585 4.57196 10.9543 5.19474 11.8183 6.80571C8.63457 7.25953 8.28345 4.14171 8.28345 4.14171C11.2601 3.6427 11.8992 5.8627 12.0254 6.5621V6.5621Z" fill="#8CC63F"/>
<path d="M20.1151 9.23792C14.9035 7.20259 9.69388 7.20259 4.4823 9.23792V11.2516C4.4823 16.3753 7.56151 21.0019 12.2997 22.998C17.0378 21.0019 20.117 16.3753 20.117 11.2516V9.23792H20.1151ZM12.2977 18.7368C9.85958 18.7368 7.88107 16.7682 7.88107 14.338C7.88107 11.9078 9.8576 9.93928 12.2977 9.93928C14.7378 9.93928 16.7143 11.9078 16.7143 14.338C16.7143 16.7682 14.7378 18.7368 12.2977 18.7368Z" fill="url(#paint0_linear_360_51711)"/>
<path d="M12.2997 9.93928C13.8442 9.93928 15.2053 10.731 15.9943 11.9275L20.117 9.23792C14.9035 7.20259 9.69388 7.20259 4.4823 9.23792L8.60501 11.9275C9.39405 10.731 10.7532 9.93928 12.2997 9.93928V9.93928Z" fill="url(#paint1_linear_360_51711)"/>
<path d="M16.7144 14.3381C16.7144 16.7664 14.7378 18.7369 12.2977 18.7369V23C17.0359 21.004 20.1151 16.3774 20.1151 11.2537V9.23999L15.9924 11.9295C16.4481 12.6211 16.7144 13.4501 16.7144 14.3401V14.3381Z" fill="url(#paint2_linear_360_51711)"/>
<defs>
<linearGradient id="paint0_linear_360_51711" x1="16.7991" y1="20.8094" x2="10.8572" y2="8.72959" gradientUnits="userSpaceOnUse">
<stop stop-color="#7A0080"/>
<stop offset="1" stop-color="#CE008D"/>
</linearGradient>
<linearGradient id="paint1_linear_360_51711" x1="4.4823" y1="9.81944" x2="20.1151" y2="9.81944" gradientUnits="userSpaceOnUse">
<stop stop-color="#7A0080"/>
<stop offset="1" stop-color="#CE008D"/>
</linearGradient>
<linearGradient id="paint2_linear_360_51711" x1="19.8291" y1="9.88241" x2="13.7368" y2="21.2702" gradientUnits="userSpaceOnUse">
<stop stop-color="#7A0080"/>
<stop offset="1" stop-color="#CE008D"/>
</linearGradient>
</defs>
</svg>
